<svg width="48" height="48" viewBox="0 0 48 48" fill="none" xmlns="http://www.w3.org/2000/svg">
<path d="M44.5611 3.43871C44.4218 3.29924 44.2564 3.18861 44.0743 3.11312C43.8922 3.03763 43.697 2.99878 43.4999 2.99878C43.3027 2.99878 43.1075 3.03763 42.9254 3.11312C42.7434 3.18861 42.5779 3.29924 42.4386 3.43871L32.6136 13.2656L31.6067 12.2568C30.4803 11.1336 28.9544 10.5029 27.3636 10.5029C25.7728 10.5029 24.247 11.1336 23.1205 12.2568L18.7499 16.6293L17.5611 15.4387C17.2796 15.1572 16.8979 14.9991 16.4999 14.9991C16.1018 14.9991 15.7201 15.1572 15.4386 15.4387C15.1571 15.7202 14.999 16.1019 14.999 16.5C14.999 16.898 15.1571 17.2797 15.4386 17.5612L16.6292 18.75L12.2567 23.1206C11.6994 23.6778 11.2574 24.3393 10.9557 25.0673C10.6541 25.7953 10.4989 26.5757 10.4989 27.3637C10.4989 28.1518 10.6541 28.9321 10.9557 29.6601C11.2574 30.3882 11.6994 31.0497 12.2567 31.6068L13.2655 32.6137L3.43861 42.4387C3.29924 42.5781 3.18869 42.7435 3.11327 42.9256C3.03784 43.1077 2.99902 43.3029 2.99902 43.5C2.99902 43.6971 3.03784 43.8922 3.11327 44.0743C3.18869 44.2564 3.29924 44.4218 3.43861 44.5612C3.72007 44.8427 4.10181 45.0008 4.49986 45.0008C4.69695 45.0008 4.89211 44.962 5.0742 44.8865C5.25629 44.8111 5.42174 44.7006 5.56111 44.5612L15.3861 34.7343L16.393 35.7431C16.9502 36.3004 17.6116 36.7425 18.3397 37.0441C19.0677 37.3457 19.8481 37.5009 20.6361 37.5009C21.4242 37.5009 22.2045 37.3457 22.9325 37.0441C23.6606 36.7425 24.3221 36.3004 24.8792 35.7431L29.2499 31.3706L30.4386 32.5612C30.578 32.7006 30.7434 32.8111 30.9255 32.8865C31.1076 32.962 31.3028 33.0008 31.4999 33.0008C31.697 33.0008 31.8921 32.962 32.0742 32.8865C32.2563 32.8111 32.4217 32.7006 32.5611 32.5612C32.7005 32.4218 32.811 32.2564 32.8864 32.0743C32.9619 31.8922 33.0007 31.6971 33.0007 31.5C33.0007 31.3029 32.9619 31.1077 32.8864 30.9256C32.811 30.7435 32.7005 30.5781 32.5611 30.4387L31.3705 29.25L35.743 24.8793C36.3003 24.3222 36.7424 23.6607 37.044 22.9326C37.3456 22.2046 37.5008 21.4243 37.5008 20.6362C37.5008 19.8482 37.3456 19.0678 37.044 18.3398C36.7424 17.6117 36.3003 16.9503 35.743 16.3931L34.7342 15.3862L44.5611 5.56121C44.7006 5.4219 44.8112 5.25647 44.8867 5.07437C44.9622 4.89227 45.001 4.69708 45.001 4.49996C45.001 4.30284 44.9622 4.10765 44.8867 3.92555C44.8112 3.74345 44.7006 3.57802 44.5611 3.43871ZM22.7567 33.6262C22.1942 34.1884 21.4314 34.5042 20.6361 34.5042C19.8408 34.5042 19.078 34.1884 18.5155 33.6262L14.3792 29.4843C13.817 28.9218 13.5012 28.159 13.5012 27.3637C13.5012 26.5684 13.817 25.8056 14.3792 25.2431L18.7499 20.8706L27.1292 29.25L22.7567 33.6262ZM33.6205 22.7625L29.2499 27.1293L20.8705 18.75L25.243 14.3793C25.8055 13.8172 26.5683 13.5014 27.3636 13.5014C28.1589 13.5014 28.9217 13.8172 29.4842 14.3793L33.6205 18.5043C33.9005 18.7831 34.1228 19.1144 34.2744 19.4793C34.426 19.8442 34.5041 20.2354 34.5041 20.6306C34.5041 21.0257 34.426 21.417 34.2744 21.7819C34.1228 22.1467 33.9005 22.4781 33.6205 22.7568V22.7625ZM16.6067 6.56246C16.4575 6.19298 16.4612 5.77937 16.617 5.41262C16.7728 5.04587 17.0679 4.75602 17.4374 4.60683C17.8068 4.45765 18.2204 4.46135 18.5872 4.61712C18.9539 4.7729 19.2438 5.06798 19.393 5.43746L20.893 9.18746C20.9669 9.37041 21.004 9.56611 21.0022 9.7634C21.0004 9.96069 20.9598 10.1557 20.8827 10.3373C20.8056 10.5189 20.6934 10.6835 20.5527 10.8218C20.4119 10.96 20.2453 11.0692 20.0624 11.1431C19.8794 11.217 19.6837 11.2541 19.4864 11.2523C19.2891 11.2505 19.0941 11.2099 18.9125 11.1328C18.7309 11.0557 18.5663 10.9435 18.428 10.8028C18.2898 10.662 18.1806 10.4954 18.1067 10.3125L16.6067 6.56246ZM4.60673 17.4375C4.68034 17.2543 4.78937 17.0875 4.92758 16.9466C5.06579 16.8056 5.23045 16.6934 5.41213 16.6162C5.59381 16.539 5.78893 16.4985 5.98631 16.4969C6.18369 16.4953 6.37945 16.5326 6.56236 16.6068L10.3124 18.1068C10.4953 18.1807 10.6619 18.2899 10.8027 18.4281C10.9434 18.5664 11.0556 18.731 11.1327 18.9126C11.2098 19.0942 11.2504 19.2892 11.2522 19.4865C11.254 19.6838 11.2169 19.8795 11.143 20.0625C11.0691 20.2454 10.9599 20.412 10.8217 20.5528C10.6834 20.6935 10.5188 20.8057 10.3372 20.8828C10.1556 20.9599 9.96059 21.0005 9.7633 21.0023C9.56601 21.0041 9.37031 20.967 9.18736 20.8931L5.43736 19.3931C5.25421 19.3195 5.08739 19.2104 4.94646 19.0722C4.80553 18.934 4.69327 18.7694 4.6161 18.5877C4.53894 18.406 4.49839 18.2109 4.49678 18.0135C4.49517 17.8161 4.53254 17.6204 4.60673 17.4375ZM43.393 30.5625C43.3199 30.7454 43.2115 30.9122 43.0739 31.0533C42.9363 31.1943 42.7723 31.3069 42.5912 31.3846C42.4101 31.4622 42.2155 31.5034 42.0185 31.5059C41.8215 31.5083 41.6259 31.4719 41.443 31.3987L37.693 29.8987C37.5097 29.8252 37.3426 29.7163 37.2014 29.5783C37.0602 29.4402 36.9475 29.2757 36.8698 29.0941C36.7922 28.9125 36.7511 28.7174 36.7488 28.5199C36.7466 28.3224 36.7832 28.1264 36.8567 27.9431C36.9302 27.7598 37.0391 27.5927 37.1772 27.4515C37.3152 27.3102 37.4798 27.1976 37.6614 27.1199C37.8429 27.0423 38.0381 27.0012 38.2356 26.9989C38.433 26.9967 38.629 27.0333 38.8124 27.1068L42.5624 28.6068C42.7455 28.6804 42.9123 28.7895 43.0533 28.9277C43.1942 29.0659 43.3064 29.2305 43.3836 29.4122C43.4608 29.5939 43.5013 29.789 43.5029 29.9864C43.5045 30.1838 43.4672 30.3795 43.393 30.5625ZM31.393 41.4487C31.4661 41.6317 31.5025 41.8272 31.5 42.0242C31.4976 42.2212 31.4564 42.4158 31.3787 42.5969C31.3011 42.778 31.1885 42.942 31.0475 43.0796C30.9064 43.2171 30.7397 43.3256 30.5567 43.3987C30.3738 43.4718 30.1782 43.5082 29.9812 43.5058C29.7842 43.5033 29.5896 43.4621 29.4085 43.3844C29.2275 43.3068 29.0635 43.1942 28.9259 43.0532C28.7883 42.9122 28.6799 42.7454 28.6067 42.5625L27.1067 38.8125C26.9576 38.443 26.9613 38.0294 27.117 37.6626C27.2728 37.2959 27.5679 37.006 27.9374 36.8568C28.3068 36.7076 28.7204 36.7113 29.0872 36.8671C29.4539 37.0229 29.7438 37.318 29.893 37.6875L31.393 41.4487Z" fill="#FDD7C2"/>
</svg>
