<svg width="48" height="48" viewBox="0 0 48 48" fill="none" xmlns="http://www.w3.org/2000/svg">
<path d="M16.5 18C16.5 17.6022 16.658 17.2206 16.9393 16.9393C17.2206 16.658 17.6022 16.5 18 16.5H30C30.3978 16.5 30.7794 16.658 31.0607 16.9393C31.342 17.2206 31.5 17.6022 31.5 18C31.5 18.3978 31.342 18.7794 31.0607 19.0607C30.7794 19.342 30.3978 19.5 30 19.5H18C17.6022 19.5 17.2206 19.342 16.9393 19.0607C16.658 18.7794 16.5 18.3978 16.5 18ZM18 25.5H30C30.3978 25.5 30.7794 25.342 31.0607 25.0607C31.342 24.7794 31.5 24.3978 31.5 24C31.5 23.6022 31.342 23.2206 31.0607 22.9393C30.7794 22.658 30.3978 22.5 30 22.5H18C17.6022 22.5 17.2206 22.658 16.9393 22.9393C16.658 23.2206 16.5 23.6022 16.5 24C16.5 24.3978 16.658 24.7794 16.9393 25.0607C17.2206 25.342 17.6022 25.5 18 25.5ZM24 28.5H18C17.6022 28.5 17.2206 28.658 16.9393 28.9393C16.658 29.2206 16.5 29.6022 16.5 30C16.5 30.3978 16.658 30.7794 16.9393 31.0607C17.2206 31.342 17.6022 31.5 18 31.5H24C24.3978 31.5 24.7794 31.342 25.0607 31.0607C25.342 30.7794 25.5 30.3978 25.5 30C25.5 29.6022 25.342 29.2206 25.0607 28.9393C24.7794 28.658 24.3978 28.5 24 28.5ZM42 9V29.3794C42.0013 29.7735 41.9242 30.1639 41.7732 30.528C41.6222 30.892 41.4004 31.2224 41.1206 31.5L31.5 41.1206C31.2224 41.4004 30.892 41.6222 30.528 41.7732C30.1639 41.9242 29.7735 42.0013 29.3794 42H9C8.20435 42 7.44129 41.6839 6.87868 41.1213C6.31607 40.5587 6 39.7957 6 39V9C6 8.20435 6.31607 7.44129 6.87868 6.87868C7.44129 6.31607 8.20435 6 9 6H39C39.7957 6 40.5587 6.31607 41.1213 6.87868C41.6839 7.44129 42 8.20435 42 9ZM9 39H28.5V30C28.5 29.6022 28.658 29.2206 28.9393 28.9393C29.2206 28.658 29.6022 28.5 30 28.5H39V9H9V39ZM31.5 31.5V36.8812L36.8794 31.5H31.5Z" fill="#CCE2CD"/>
</svg>
