<svg width="48" height="48" viewBox="0 0 48 48" fill="none" xmlns="http://www.w3.org/2000/svg">
<path d="M37.5 28.5C36.1742 28.4993 34.8858 28.9399 33.8381 29.7525L29.505 26.3775C29.8321 25.6276 30.0007 24.8181 30 24C30 23.8612 30 23.7225 29.985 23.5856L32.4656 22.7587C33.2504 23.9691 34.4451 24.8562 35.8306 25.2576C37.2162 25.659 38.7 25.5477 40.0103 24.9442C41.3205 24.3406 42.3694 23.2852 42.9649 21.9713C43.5604 20.6574 43.6626 19.173 43.2528 17.7899C42.8429 16.4068 41.9485 15.2176 40.7333 14.4402C39.5182 13.6629 38.0636 13.3493 36.6361 13.557C35.2086 13.7648 33.9037 14.4798 32.9604 15.5713C32.0172 16.6627 31.4987 18.0574 31.5 19.5C31.5 19.6387 31.5 19.7775 31.515 19.9144L29.0344 20.7412C28.4906 19.9005 27.7451 19.2093 26.8657 18.7305C25.9864 18.2517 25.0013 18.0006 24 18C23.669 18.0007 23.3385 18.0283 23.0119 18.0825L21.7294 15.1875C22.8368 14.3027 23.5952 13.0543 23.8701 11.6638C24.1451 10.2732 23.9188 8.83018 23.2314 7.5905C22.5441 6.35082 21.44 5.39453 20.1149 4.89112C18.7898 4.38772 17.3293 4.3697 15.9922 4.84027C14.6551 5.31085 13.5278 6.23962 12.8101 7.46196C12.0923 8.68431 11.8305 10.1213 12.0711 11.5182C12.3116 12.9152 13.039 14.1818 14.1242 15.0937C15.2095 16.0055 16.5825 16.5037 18 16.5C18.3311 16.4993 18.6615 16.4717 18.9881 16.4175L20.2706 19.305C19.1831 20.1658 18.4282 21.3776 18.1351 22.7332C17.842 24.0889 18.0289 25.5043 18.6638 26.7375L13.8431 31.02C12.63 30.2021 11.1602 29.8548 9.70928 30.0431C8.25836 30.2314 6.92592 30.9424 5.96171 32.0428C4.99751 33.1433 4.46774 34.5576 4.4717 36.0206C4.47567 37.4837 5.01309 38.8951 5.98324 39.9903C6.9534 41.0855 8.28967 41.7893 9.74159 41.9697C11.1935 42.1502 12.6614 41.7949 13.8701 40.9705C15.0788 40.146 15.9454 38.9091 16.3073 37.4915C16.6693 36.0739 16.5018 34.5729 15.8363 33.27L20.6569 28.9875C21.7006 29.6902 22.9394 30.0461 24.197 30.0043C25.4546 29.9626 26.667 29.5254 27.6619 28.755L31.995 32.13C31.6689 32.8776 31.5004 33.6844 31.5 34.5C31.5 35.6867 31.8519 36.8467 32.5112 37.8334C33.1705 38.8201 34.1076 39.5891 35.2039 40.0433C36.3003 40.4974 37.5067 40.6162 38.6706 40.3847C39.8344 40.1532 40.9035 39.5817 41.7427 38.7426C42.5818 37.9035 43.1532 36.8344 43.3847 35.6705C43.6162 34.5066 43.4974 33.3002 43.0433 32.2039C42.5892 31.1075 41.8201 30.1704 40.8334 29.5112C39.8467 28.8519 38.6867 28.5 37.5 28.5ZM37.5 16.5C38.0934 16.5 38.6734 16.6759 39.1667 17.0056C39.6601 17.3352 40.0446 17.8037 40.2717 18.3519C40.4987 18.9001 40.5581 19.5033 40.4424 20.0852C40.3266 20.6672 40.0409 21.2017 39.6213 21.6213C39.2018 22.0409 38.6672 22.3266 38.0853 22.4423C37.5033 22.5581 36.9001 22.4987 36.352 22.2716C35.8038 22.0446 35.3353 21.66 35.0056 21.1667C34.676 20.6733 34.5 20.0933 34.5 19.5C34.5 18.7043 34.8161 17.9413 35.3787 17.3787C35.9413 16.816 36.7044 16.5 37.5 16.5ZM15 10.5C15 9.90663 15.176 9.32662 15.5056 8.83327C15.8353 8.33992 16.3038 7.9554 16.852 7.72834C17.4002 7.50128 18.0033 7.44187 18.5853 7.55762C19.1672 7.67338 19.7018 7.9591 20.1213 8.37866C20.5409 8.79822 20.8266 9.33276 20.9424 9.91471C21.0581 10.4967 20.9987 11.0999 20.7717 11.648C20.5446 12.1962 20.1601 12.6647 19.6667 12.9944C19.1734 13.324 18.5934 13.5 18 13.5C17.2044 13.5 16.4413 13.1839 15.8787 12.6213C15.3161 12.0587 15 11.2956 15 10.5ZM10.5 39C9.90668 39 9.32666 38.824 8.83331 38.4944C8.33996 38.1647 7.95545 37.6962 7.72838 37.148C7.50132 36.5998 7.44191 35.9966 7.55767 35.4147C7.67342 34.8328 7.95914 34.2982 8.3787 33.8787C8.79826 33.4591 9.33281 33.1734 9.91475 33.0576C10.4967 32.9419 11.0999 33.0013 11.6481 33.2283C12.1963 33.4554 12.6648 33.8399 12.9944 34.3333C13.3241 34.8266 13.5 35.4066 13.5 36C13.5 36.7956 13.184 37.5587 12.6213 38.1213C12.0587 38.6839 11.2957 39 10.5 39ZM21 24C21 23.4066 21.176 22.8266 21.5056 22.3333C21.8353 21.8399 22.3038 21.4554 22.852 21.2283C23.4002 21.0013 24.0033 20.9419 24.5853 21.0576C25.1672 21.1734 25.7018 21.4591 26.1213 21.8787C26.5409 22.2982 26.8266 22.8328 26.9424 23.4147C27.0581 23.9966 26.9987 24.5998 26.7717 25.148C26.5446 25.6962 26.1601 26.1647 25.6667 26.4944C25.1734 26.824 24.5934 27 24 27C23.2044 27 22.4413 26.6839 21.8787 26.1213C21.3161 25.5587 21 24.7956 21 24ZM37.5 37.5C36.9067 37.5 36.3267 37.324 35.8333 36.9944C35.34 36.6647 34.9554 36.1962 34.7284 35.648C34.5013 35.0998 34.4419 34.4966 34.5577 33.9147C34.6734 33.3328 34.9591 32.7982 35.3787 32.3787C35.7983 31.9591 36.3328 31.6734 36.9147 31.5576C37.4967 31.4419 38.0999 31.5013 38.6481 31.7283C39.1963 31.9554 39.6648 32.3399 39.9944 32.8333C40.3241 33.3266 40.5 33.9066 40.5 34.5C40.5 35.2956 40.1839 36.0587 39.6213 36.6213C39.0587 37.1839 38.2957 37.5 37.5 37.5Z" fill="#A0BEFF"/>
</svg>
