<svg width="33" height="32" viewBox="0 0 33 32" fill="none" xmlns="http://www.w3.org/2000/svg">
<rect x="1" y="0.5" width="31" height="31" rx="7.5" fill="#3A3A3A"/>
<rect x="1" y="0.5" width="31" height="31" rx="7.5" stroke="white"/>
<g clip-path="url(#clip0_953_6562)">
<path d="M24.0291 11.095C24.2583 10.3555 24.3318 9.57653 24.245 8.80719C24.1582 8.03785 23.913 7.29484 23.5247 6.62501C23.4588 6.51097 23.3641 6.41628 23.2501 6.35045C23.136 6.28462 23.0067 6.24998 22.875 6.25001C22.0014 6.24818 21.1395 6.4507 20.3582 6.84137C19.5768 7.23205 18.8977 7.80006 18.375 8.50001H16.125C15.6023 7.80006 14.9232 7.23205 14.1418 6.84137C13.3605 6.4507 12.4986 6.24818 11.625 6.25001C11.4933 6.24998 11.364 6.28462 11.2499 6.35045C11.1359 6.41628 11.0412 6.51097 10.9753 6.62501C10.587 7.29484 10.3418 8.03785 10.255 8.80719C10.1682 9.57653 10.2417 10.3555 10.4709 11.095C10.0076 11.9038 9.75934 12.8179 9.75 13.75V14.5C9.75158 15.769 10.2123 16.9946 11.047 17.9504C11.8817 18.9063 13.034 19.5278 14.2913 19.7003C13.7781 20.357 13.4995 21.1666 13.5 22V22.75H11.25C10.6533 22.75 10.081 22.513 9.65901 22.091C9.23705 21.669 9 21.0968 9 20.5C9 20.0076 8.903 19.5199 8.71455 19.0649C8.52609 18.61 8.24987 18.1966 7.90165 17.8484C7.55343 17.5001 7.14003 17.2239 6.68506 17.0355C6.23009 16.847 5.74246 16.75 5.25 16.75C5.05109 16.75 4.86032 16.829 4.71967 16.9697C4.57902 17.1103 4.5 17.3011 4.5 17.5C4.5 17.6989 4.57902 17.8897 4.71967 18.0303C4.86032 18.171 5.05109 18.25 5.25 18.25C5.84674 18.25 6.41903 18.4871 6.84099 18.909C7.26295 19.331 7.5 19.9033 7.5 20.5C7.5 21.4946 7.89509 22.4484 8.59835 23.1517C9.30161 23.8549 10.2554 24.25 11.25 24.25H13.5V25.75C13.5 25.9489 13.579 26.1397 13.7197 26.2803C13.8603 26.421 14.0511 26.5 14.25 26.5C14.4489 26.5 14.6397 26.421 14.7803 26.2803C14.921 26.1397 15 25.9489 15 25.75V22C15 21.4033 15.2371 20.831 15.659 20.409C16.081 19.9871 16.6533 19.75 17.25 19.75C17.8467 19.75 18.419 19.9871 18.841 20.409C19.2629 20.831 19.5 21.4033 19.5 22V25.75C19.5 25.9489 19.579 26.1397 19.7197 26.2803C19.8603 26.421 20.0511 26.5 20.25 26.5C20.4489 26.5 20.6397 26.421 20.7803 26.2803C20.921 26.1397 21 25.9489 21 25.75V22C21.0005 21.1666 20.7219 20.357 20.2087 19.7003C21.466 19.5278 22.6183 18.9063 23.453 17.9504C24.2877 16.9946 24.7484 15.769 24.75 14.5V13.75C24.7407 12.8179 24.4924 11.9038 24.0291 11.095ZM23.25 14.5C23.25 15.4946 22.8549 16.4484 22.1516 17.1517C21.4484 17.8549 20.4946 18.25 19.5 18.25H15C14.0054 18.25 13.0516 17.8549 12.3483 17.1517C11.6451 16.4484 11.25 15.4946 11.25 14.5V13.75C11.2592 13 11.4837 12.2685 11.8969 11.6425C11.9739 11.541 12.0238 11.4215 12.0418 11.2954C12.0599 11.1693 12.0455 11.0406 12 10.9216C11.8046 10.4178 11.7106 9.88035 11.7233 9.34013C11.736 8.79992 11.8552 8.26752 12.0741 7.77345C12.6879 7.83948 13.2789 8.04281 13.8034 8.36836C14.328 8.69391 14.7725 9.13334 15.1041 9.65407C15.1716 9.75974 15.2646 9.84676 15.3745 9.9072C15.4844 9.96763 15.6077 9.99955 15.7331 10H18.7659C18.8918 10 19.0157 9.96833 19.1261 9.90787C19.2366 9.84742 19.33 9.76014 19.3978 9.65407C19.7293 9.1333 20.1738 8.69383 20.6984 8.36827C21.2229 8.04271 21.814 7.83941 22.4278 7.77345C22.6463 8.26765 22.7652 8.80011 22.7776 9.34032C22.79 9.88053 22.6956 10.4179 22.5 10.9216C22.4547 11.0395 22.4395 11.1668 22.4559 11.2921C22.4722 11.4173 22.5196 11.5365 22.5938 11.6388C23.011 12.2648 23.2388 12.9978 23.25 13.75V14.5Z" fill="white"/>
</g>
<defs>
<clipPath id="clip0_953_6562">
<rect width="24" height="24" fill="white" transform="translate(4.5 4)"/>
</clipPath>
</defs>
</svg>
