<svg width="33" height="32" viewBox="0 0 33 32" fill="none" xmlns="http://www.w3.org/2000/svg">
<rect x="1" y="0.5" width="31" height="31" rx="7.5" fill="#3A3A3A"/>
<rect x="1" y="0.5" width="31" height="31" rx="7.5" stroke="white"/>
<path d="M24.633 23.8478L18.7643 14.6247L24.5552 8.25438C24.6862 8.10674 24.7537 7.91343 24.7431 7.71636C24.7325 7.51929 24.6446 7.33435 24.4986 7.20161C24.3525 7.06888 24.16 6.99907 23.9628 7.00731C23.7657 7.01555 23.5797 7.10117 23.4452 7.24562L17.9289 13.3131L14.133 7.34781C14.0653 7.24127 13.9718 7.15353 13.8612 7.09274C13.7506 7.03194 13.6264 7.00004 13.5002 7H9.00019C8.86571 6.99993 8.7337 7.03603 8.61796 7.10449C8.50222 7.17296 8.40702 7.27129 8.34232 7.38918C8.27763 7.50707 8.24582 7.64018 8.25023 7.77458C8.25463 7.90898 8.2951 8.03973 8.36738 8.15313L14.2361 17.3753L8.44519 23.7503C8.37756 23.823 8.32503 23.9083 8.29063 24.0014C8.25623 24.0945 8.24065 24.1935 8.24479 24.2927C8.24894 24.3918 8.27272 24.4892 8.31477 24.5791C8.35681 24.669 8.41628 24.7496 8.48973 24.8164C8.56318 24.8831 8.64915 24.9346 8.74265 24.9679C8.83615 25.0012 8.93533 25.0156 9.03443 25.0103C9.13354 25.0049 9.2306 24.98 9.31999 24.9369C9.40938 24.8937 9.48932 24.8333 9.55519 24.7591L15.0714 18.6916L18.8674 24.6569C18.9356 24.7625 19.0293 24.8494 19.1399 24.9093C19.2505 24.9693 19.3744 25.0005 19.5002 25H24.0002C24.1345 25 24.2664 24.9638 24.382 24.8954C24.4976 24.827 24.5927 24.7288 24.6573 24.611C24.722 24.4933 24.7539 24.3604 24.7496 24.2261C24.7453 24.0918 24.705 23.9612 24.633 23.8478ZM19.9118 23.5L10.3661 8.5H13.0849L22.6343 23.5H19.9118Z" fill="white"/>
</svg>
