<svg width="29" height="28" viewBox="0 0 29 28" fill="none" xmlns="http://www.w3.org/2000/svg">
<rect x="1" y="0.5" width="27" height="27" rx="7.5" fill="#F6F6F6"/>
<rect x="1" y="0.5" width="27" height="27" rx="7.5" stroke="#E0E0E0"/>
<g clip-path="url(#clip0_1035_24750)">
<path opacity="0.2" d="M20.75 12.125V12.75C20.75 13.7446 20.3549 14.6984 19.6517 15.4017C18.9484 16.1049 17.9946 16.5 17 16.5H15.125C15.788 16.5 16.4239 16.7634 16.8928 17.2322C17.3616 17.7011 17.625 18.337 17.625 19V22.125H12.625V19C12.625 18.337 12.8884 17.7011 13.3572 17.2322C13.8261 16.7634 14.462 16.5 15.125 16.5H13.25C12.2554 16.5 11.3016 16.1049 10.5983 15.4017C9.89509 14.6984 9.5 13.7446 9.5 12.75V12.125C9.50594 11.364 9.7373 10.6218 10.1648 9.99219C9.94646 9.42671 9.8576 8.81948 9.90478 8.21515C9.95196 7.61081 10.134 7.02473 10.4375 6.5C11.1198 6.49984 11.7911 6.67153 12.3896 6.99922C12.988 7.32692 13.4943 7.80006 13.8617 8.375H16.3883C16.7557 7.80006 17.262 7.32692 17.8604 6.99922C18.4589 6.67153 19.1302 6.49984 19.8125 6.5C20.116 7.02473 20.298 7.61081 20.3452 8.21515C20.3924 8.81948 20.3035 9.42671 20.0852 9.99219C20.5127 10.6218 20.7441 11.364 20.75 12.125Z" fill="black"/>
<path d="M20.7734 9.91251C20.9648 9.29634 21.0263 8.64719 20.9541 8.00604C20.8819 7.3649 20.6775 6.74569 20.3539 6.18751C20.299 6.09248 20.2201 6.01357 20.1251 5.95871C20.03 5.90385 19.9222 5.87499 19.8125 5.87501C19.0845 5.87349 18.3663 6.04225 17.7151 6.36781C17.064 6.69337 16.4981 7.16671 16.0625 7.75001H14.1875C13.7519 7.16671 13.186 6.69337 12.5349 6.36781C11.8837 6.04225 11.1655 5.87349 10.4375 5.87501C10.3278 5.87499 10.22 5.90385 10.1249 5.95871C10.0299 6.01357 9.95096 6.09248 9.89609 6.18751C9.57254 6.7457 9.36814 7.36487 9.2958 8.00599C9.22346 8.64711 9.28474 9.29626 9.47578 9.91251C9.08963 10.5865 8.88278 11.3483 8.875 12.125V12.75C8.87632 13.8075 9.26021 14.8288 9.9558 15.6254C10.6514 16.4219 11.6117 16.9399 12.6594 17.0836C12.2317 17.6308 11.9996 18.3055 12 19V19.625H10.125C9.62772 19.625 9.15081 19.4275 8.79917 19.0758C8.44754 18.7242 8.25 18.2473 8.25 17.75C8.25 17.3396 8.16917 16.9333 8.01212 16.5541C7.85508 16.175 7.62489 15.8305 7.33471 15.5403C7.04453 15.2501 6.70003 15.0199 6.32089 14.8629C5.94174 14.7058 5.53538 14.625 5.125 14.625C4.95924 14.625 4.80027 14.6909 4.68306 14.8081C4.56585 14.9253 4.5 15.0843 4.5 15.25C4.5 15.4158 4.56585 15.5747 4.68306 15.692C4.80027 15.8092 4.95924 15.875 5.125 15.875C5.62228 15.875 6.09919 16.0726 6.45083 16.4242C6.80246 16.7758 7 17.2527 7 17.75C7 18.5788 7.32924 19.3737 7.91529 19.9597C8.50134 20.5458 9.2962 20.875 10.125 20.875H12V22.125C12 22.2908 12.0658 22.4497 12.1831 22.567C12.3003 22.6842 12.4592 22.75 12.625 22.75C12.7908 22.75 12.9497 22.6842 13.0669 22.567C13.1842 22.4497 13.25 22.2908 13.25 22.125V19C13.25 18.5027 13.4475 18.0258 13.7992 17.6742C14.1508 17.3226 14.6277 17.125 15.125 17.125C15.6223 17.125 16.0992 17.3226 16.4508 17.6742C16.8025 18.0258 17 18.5027 17 19V22.125C17 22.2908 17.0658 22.4497 17.1831 22.567C17.3003 22.6842 17.4592 22.75 17.625 22.75C17.7908 22.75 17.9497 22.6842 18.0669 22.567C18.1842 22.4497 18.25 22.2908 18.25 22.125V19C18.2504 18.3055 18.0183 17.6308 17.5906 17.0836C18.6383 16.9399 19.5986 16.4219 20.2942 15.6254C20.9898 14.8288 21.3737 13.8075 21.375 12.75V12.125C21.3675 11.3481 21.1603 10.5862 20.7734 9.91251ZM20.125 12.75C20.125 13.5788 19.7958 14.3737 19.2097 14.9597C18.6237 15.5458 17.8288 15.875 17 15.875H13.25C12.4212 15.875 11.6263 15.5458 11.0403 14.9597C10.4542 14.3737 10.125 13.5788 10.125 12.75V12.125C10.1327 11.5 10.3198 10.8904 10.6641 10.3688C10.7282 10.2842 10.7698 10.1846 10.7848 10.0795C10.7999 9.97439 10.7879 9.86717 10.75 9.76798C10.5872 9.34813 10.5089 8.90029 10.5194 8.45011C10.53 7.99993 10.6294 7.55627 10.8117 7.14454C11.3232 7.19957 11.8158 7.36901 12.2529 7.6403C12.69 7.91159 13.0604 8.27779 13.3367 8.71173C13.393 8.79978 13.4705 8.8723 13.5621 8.92267C13.6537 8.97303 13.7564 8.99962 13.8609 9.00001H16.3883C16.4932 9.00001 16.5964 8.97361 16.6884 8.92323C16.7805 8.87285 16.8583 8.80011 16.9148 8.71173C17.1911 8.27775 17.5615 7.91153 17.9986 7.64023C18.4358 7.36893 18.9283 7.19951 19.4398 7.14454C19.622 7.55637 19.721 8.00009 19.7313 8.45027C19.7417 8.90044 19.663 9.34824 19.5 9.76798C19.4622 9.86623 19.4496 9.97235 19.4632 10.0767C19.4769 10.1811 19.5164 10.2804 19.5781 10.3656C19.9257 10.8874 20.1155 11.4982 20.125 12.125V12.75Z" fill="black"/>
</g>
<defs>
<clipPath id="clip0_1035_24750">
<rect width="20" height="20" fill="white" transform="translate(4.5 4)"/>
</clipPath>
</defs>
</svg>
