<svg width="21" height="21" viewBox="0 0 21 21" fill="none" xmlns="http://www.w3.org/2000/svg">
<g clip-path="url(#clip0_1035_22623)">
<path opacity="0.2" d="M16.75 8.625V9.25C16.75 10.2446 16.3549 11.1984 15.6517 11.9017C14.9484 12.6049 13.9946 13 13 13H11.125C11.788 13 12.4239 13.2634 12.8928 13.7322C13.3616 14.2011 13.625 14.837 13.625 15.5V18.625H8.625V15.5C8.625 14.837 8.88839 14.2011 9.35723 13.7322C9.82607 13.2634 10.462 13 11.125 13H9.25C8.25544 13 7.30161 12.6049 6.59835 11.9017C5.89509 11.1984 5.5 10.2446 5.5 9.25V8.625C5.50594 7.86398 5.7373 7.12179 6.16484 6.49219C5.94646 5.92671 5.8576 5.31948 5.90478 4.71515C5.95196 4.11081 6.134 3.52473 6.4375 3C7.1198 2.99984 7.79114 3.17153 8.3896 3.49922C8.98805 3.82692 9.49433 4.30006 9.86172 4.875H12.3883C12.7557 4.30006 13.262 3.82692 13.8604 3.49922C14.4589 3.17153 15.1302 2.99984 15.8125 3C16.116 3.52473 16.298 4.11081 16.3452 4.71515C16.3924 5.31948 16.3035 5.92671 16.0852 6.49219C16.5127 7.12179 16.7441 7.86398 16.75 8.625Z" fill="#EFF6FF"/>
<path d="M16.7734 6.41251C16.9648 5.79634 17.0263 5.14719 16.9541 4.50604C16.8819 3.8649 16.6775 3.24569 16.3539 2.68751C16.299 2.59248 16.2201 2.51357 16.1251 2.45871C16.03 2.40385 15.9222 2.37499 15.8125 2.37501C15.0845 2.37349 14.3663 2.54225 13.7151 2.86781C13.064 3.19337 12.4981 3.66671 12.0625 4.25001H10.1875C9.75193 3.66671 9.18598 3.19337 8.53485 2.86781C7.88372 2.54225 7.16548 2.37349 6.4375 2.37501C6.32777 2.37499 6.21996 2.40385 6.12492 2.45871C6.02988 2.51357 5.95096 2.59248 5.89609 2.68751C5.57254 3.2457 5.36814 3.86487 5.2958 4.50599C5.22346 5.14711 5.28474 5.79626 5.47578 6.41251C5.08963 7.08651 4.88278 7.84827 4.875 8.62501V9.25001C4.87632 10.3075 5.26021 11.3288 5.9558 12.1254C6.65139 12.9219 7.61169 13.4399 8.65938 13.5836C8.23173 14.1308 7.9996 14.8055 8 15.5V16.125H6.125C5.62772 16.125 5.15081 15.9275 4.79917 15.5758C4.44754 15.2242 4.25 14.7473 4.25 14.25C4.25 13.8396 4.16917 13.4333 4.01212 13.0541C3.85508 12.675 3.62489 12.3305 3.33471 12.0403C3.04453 11.7501 2.70003 11.5199 2.32089 11.3629C1.94174 11.2058 1.53538 11.125 1.125 11.125C0.95924 11.125 0.800269 11.1909 0.683058 11.3081C0.565848 11.4253 0.5 11.5842 0.5 11.75C0.5 11.9158 0.565848 12.0747 0.683058 12.192C0.800269 12.3092 0.95924 12.375 1.125 12.375C1.62228 12.375 2.09919 12.5726 2.45083 12.9242C2.80246 13.2758 3 13.7527 3 14.25C3 15.0788 3.32924 15.8737 3.91529 16.4597C4.50134 17.0458 5.2962 17.375 6.125 17.375H8V18.625C8 18.7908 8.06585 18.9497 8.18306 19.067C8.30027 19.1842 8.45924 19.25 8.625 19.25C8.79076 19.25 8.94973 19.1842 9.06694 19.067C9.18415 18.9497 9.25 18.7908 9.25 18.625V15.5C9.25 15.0027 9.44754 14.5258 9.79917 14.1742C10.1508 13.8226 10.6277 13.625 11.125 13.625C11.6223 13.625 12.0992 13.8226 12.4508 14.1742C12.8025 14.5258 13 15.0027 13 15.5V18.625C13 18.7908 13.0658 18.9497 13.1831 19.067C13.3003 19.1842 13.4592 19.25 13.625 19.25C13.7908 19.25 13.9497 19.1842 14.0669 19.067C14.1842 18.9497 14.25 18.7908 14.25 18.625V15.5C14.2504 14.8055 14.0183 14.1308 13.5906 13.5836C14.6383 13.4399 15.5986 12.9219 16.2942 12.1254C16.9898 11.3288 17.3737 10.3075 17.375 9.25001V8.62501C17.3675 7.84813 17.1603 7.08624 16.7734 6.41251ZM16.125 9.25001C16.125 10.0788 15.7958 10.8737 15.2097 11.4597C14.6237 12.0458 13.8288 12.375 13 12.375H9.25C8.4212 12.375 7.62634 12.0458 7.04029 11.4597C6.45424 10.8737 6.125 10.0788 6.125 9.25001V8.62501C6.13266 8.00003 6.31978 7.39042 6.66406 6.86876C6.72824 6.78417 6.76981 6.68462 6.78485 6.5795C6.79988 6.47439 6.78789 6.36717 6.75 6.26798C6.5872 5.84813 6.50886 5.40029 6.51945 4.95011C6.53004 4.49993 6.62936 4.05627 6.81172 3.64454C7.32322 3.69957 7.81577 3.86901 8.25287 4.1403C8.68997 4.41159 9.0604 4.77779 9.33672 5.21173C9.39303 5.29978 9.47051 5.3723 9.56209 5.42267C9.65368 5.47303 9.75642 5.49962 9.86094 5.50001H12.3883C12.4932 5.50001 12.5964 5.47361 12.6884 5.42323C12.7805 5.37285 12.8583 5.30011 12.9148 5.21173C13.1911 4.77775 13.5615 4.41153 13.9986 4.14023C14.4358 3.86893 14.9283 3.69951 15.4398 3.64454C15.622 4.05637 15.721 4.50009 15.7313 4.95027C15.7417 5.40044 15.663 5.84824 15.5 6.26798C15.4622 6.36623 15.4496 6.47235 15.4632 6.57672C15.4769 6.68109 15.5164 6.7804 15.5781 6.86564C15.9257 7.38737 16.1155 7.99819 16.125 8.62501V9.25001Z" fill="#EFF6FF"/>
</g>
<defs>
<clipPath id="clip0_1035_22623">
<rect width="20" height="20" fill="white" transform="translate(0.5 0.5)"/>
</clipPath>
</defs>
</svg>
