<svg width="375" height="425" viewBox="0 0 375 425" fill="none" xmlns="http://www.w3.org/2000/svg">
<path d="M347.603 257.471L202.253 373.273L121.301 413.748L178.858 367.89L266.651 297.947C271.629 294.102 272.601 287.383 269.525 277.83C266.408 268.278 261.025 261.275 253.375 256.863L184.929 217.318L265.882 176.842L334.327 216.387C341.977 220.799 347.36 227.802 350.477 237.354C353.553 246.906 352.582 253.625 347.603 257.471Z" fill="#E7E7E7" stroke="#F6F6F6" stroke-width="12.1429" stroke-linecap="round" stroke-linejoin="round"/>
<path d="M202.254 373.274C200.999 374.245 199.663 374.933 198.206 375.297L202.254 373.274Z" fill="#E7E7E7" stroke="#F6F6F6" stroke-width="12.1429" stroke-linecap="round" stroke-linejoin="round"/>
<path d="M266.651 297.947L178.858 367.89L121.301 413.748C118.063 416.298 114.096 416.865 109.401 415.488C104.665 414.112 100.132 410.995 95.6794 406.057C91.2675 401.161 87.827 395.535 85.3175 389.18C82.808 382.826 81.8361 376.957 82.4433 371.573L96.5695 267.711L41.8054 236.099C34.7221 232.011 29.5007 225.333 26.1412 216.145C22.7412 206.916 23.1053 200.116 27.2339 195.745L159.308 54.0376C160.036 53.2685 160.805 52.6614 161.655 52.1352L161.939 51.9733L163.153 51.4066C165.339 50.4352 167.889 50.2733 170.803 50.7995C175.498 51.6495 180.355 54.5233 185.374 59.4614C187.56 61.6066 189.463 63.8733 191.122 66.3019C193.308 69.4185 195.089 72.8185 196.425 76.4614C198.772 82.8971 199.662 88.8066 199.055 94.2304L184.929 217.319L253.375 256.864C261.025 261.276 266.408 268.278 269.525 277.83C272.601 287.383 271.629 294.102 266.651 297.947Z" fill="#E7E7E7" stroke="#F6F6F6" stroke-width="12.1429" stroke-linecap="round" stroke-linejoin="round"/>
<path d="M280.008 53.7541L265.882 176.842L184.93 217.318L199.056 94.2303C199.663 88.8065 198.772 82.897 196.425 76.4613C195.089 72.8184 193.308 69.4184 191.122 66.3018C189.463 63.8732 187.56 61.6065 185.375 59.4613C180.356 54.5232 175.499 51.6494 170.803 50.7994C167.889 50.2732 165.339 50.4351 163.153 51.4065L243.053 11.4162C245.522 10.04 248.396 9.67569 251.756 10.3233C256.451 11.1733 261.308 14.0471 266.327 18.9852C271.306 23.8828 274.989 29.5495 277.377 35.9852C279.725 42.4208 280.615 48.3303 280.008 53.7541Z" fill="#E7E7E7" stroke="#F6F6F6" stroke-width="12.1429" stroke-linecap="round" stroke-linejoin="round"/>
<path d="M243.498 11.1729L243.053 11.4157L243.498 11.1729Z" fill="#E7E7E7"/>
<path d="M243.498 11.1729L243.053 11.4157" stroke="#F6F6F6" stroke-width="12.1429" stroke-linecap="round" stroke-linejoin="round"/>
</svg>
