<svg width="130" height="25" viewBox="0 0 130 25" fill="none" xmlns="http://www.w3.org/2000/svg">
<path d="M34.8631 12.3374C34.8129 12.2183 33.5988 9.38676 30.8996 6.54917C27.3032 2.76824 22.7606 0.77002 17.7608 0.77002C12.761 0.77002 8.2184 2.76824 4.62191 6.54917C1.92275 9.38676 0.7029 12.2228 0.658464 12.3374C0.593261 12.4915 0.55957 12.6584 0.55957 12.8271C0.55957 12.9959 0.593261 13.1627 0.658464 13.3169C0.708634 13.4359 1.92275 16.266 4.62191 19.1036C8.2184 22.883 12.761 24.8812 17.7608 24.8812C22.7606 24.8812 27.3032 22.883 30.8996 19.1036C33.5988 16.266 34.8129 13.4359 34.8631 13.3169C34.9283 13.1627 34.962 12.9959 34.962 12.8271C34.962 12.6584 34.9283 12.4915 34.8631 12.3374ZM17.7608 22.4701C13.3487 22.4701 9.49416 20.7838 6.30333 17.4595C4.9941 16.0907 3.88023 14.5299 2.9964 12.8256C3.88 11.1212 4.99388 9.56033 6.30333 8.19175C9.49416 4.86742 13.3487 3.18114 17.7608 3.18114C22.1729 3.18114 26.0274 4.86742 29.2182 8.19175C30.53 9.56 31.6463 11.1208 32.5323 12.8256C31.4988 14.854 26.9964 22.4701 17.7608 22.4701Z" fill="#204ECF"/>
<path d="M20.8047 5.9668C23.437 7.13336 25.2744 9.76683 25.2744 12.8311C25.2742 16.9766 21.9129 20.3377 17.7666 20.3379C16.9235 20.3378 16.113 20.1958 15.3564 19.9395L16.4102 18.7412C16.8462 18.8408 17.3004 18.8955 17.7666 18.8955C21.1163 18.8953 23.8319 16.1802 23.832 12.8311C23.832 10.3755 22.3715 8.26243 20.2725 7.30859L20.8047 5.9668ZM17.7666 5.32422C18.5047 5.32426 19.2178 5.43238 19.8916 5.63086L18.7842 6.85254C18.4534 6.79666 18.1133 6.76662 17.7666 6.7666C14.4168 6.76684 11.7002 9.48176 11.7002 12.8311C11.7003 15.1435 12.9955 17.1538 14.8994 18.1768L14.415 19.5479C11.9514 18.3166 10.2579 15.7722 10.2578 12.8311C10.2578 8.68534 13.6203 5.32446 17.7666 5.32422ZM17.6533 11.6465H21.5381L15.7773 18.1826L17.4658 13.3877H14.0088L19.2344 7.62793L17.6533 11.6465Z" fill="#F7931A"/>
<path d="M52.0612 6.19325V20.8257H50.6648C50.4489 20.8257 50.2668 20.792 50.1183 20.7245C49.9767 20.6503 49.8384 20.5289 49.7035 20.3602L42.0634 10.6052C42.1039 11.0505 42.1241 11.462 42.1241 11.8398V20.8257H39.7259V6.19325H41.1527C41.2674 6.19325 41.3652 6.2 41.4462 6.21349C41.5339 6.22024 41.6081 6.24047 41.6688 6.2742C41.7362 6.30119 41.8003 6.34504 41.861 6.40576C41.9218 6.45972 41.9892 6.53393 42.0634 6.62838L49.7338 16.4238C49.7136 16.1877 49.6967 15.955 49.6832 15.7256C49.6697 15.4962 49.663 15.2837 49.663 15.0881V6.19325H52.0612ZM59.2031 10.2814C59.9721 10.2814 60.6703 10.4062 61.2977 10.6558C61.9319 10.9054 62.4716 11.2596 62.9168 11.7184C63.3688 12.1771 63.7162 12.737 63.9591 13.3982C64.202 14.0593 64.3234 14.798 64.3234 15.6143C64.3234 16.4373 64.202 17.1794 63.9591 17.8405C63.7162 18.5016 63.3688 19.0649 62.9168 19.5304C62.4716 19.9959 61.9319 20.3535 61.2977 20.6031C60.6703 20.8527 59.9721 20.9775 59.2031 20.9775C58.4272 20.9775 57.7223 20.8527 57.0881 20.6031C56.454 20.3535 55.9109 19.9959 55.4589 19.5304C55.0137 19.0649 54.6663 18.5016 54.4167 17.8405C54.1738 17.1794 54.0524 16.4373 54.0524 15.6143C54.0524 14.798 54.1738 14.0593 54.4167 13.3982C54.6663 12.737 55.0137 12.1771 55.4589 11.7184C55.9109 11.2596 56.454 10.9054 57.0881 10.6558C57.7223 10.4062 58.4272 10.2814 59.2031 10.2814ZM59.2031 19.0548C60.0666 19.0548 60.7041 18.7647 61.1156 18.1846C61.5339 17.6044 61.743 16.7544 61.743 15.6345C61.743 14.5146 61.5339 13.6613 61.1156 13.0743C60.7041 12.4874 60.0666 12.194 59.2031 12.194C58.3261 12.194 57.6751 12.4908 57.25 13.0845C56.8318 13.6714 56.6227 14.5214 56.6227 15.6345C56.6227 16.7476 56.8318 17.5976 57.25 18.1846C57.6751 18.7647 58.3261 19.0548 59.2031 19.0548ZM72.747 13.0946C72.4637 12.7505 72.1534 12.5077 71.8161 12.366C71.4855 12.2243 71.128 12.1535 70.7434 12.1535C70.3656 12.1535 70.025 12.2243 69.7214 12.366C69.4178 12.5077 69.1581 12.7235 68.9422 13.0136C68.7263 13.297 68.561 13.6613 68.4464 14.1065C68.3317 14.545 68.2743 15.0645 68.2743 15.6649C68.2743 16.272 68.3216 16.7881 68.416 17.2131C68.5172 17.6314 68.6589 17.9754 68.841 18.2453C69.0232 18.5084 69.2458 18.7006 69.5089 18.8221C69.772 18.9368 70.0654 18.9941 70.3893 18.9941C70.9087 18.9941 71.3506 18.8862 71.7149 18.6703C72.0792 18.4544 72.4232 18.1475 72.747 17.7494V13.0946ZM75.2465 5.78848V20.8257H73.7185C73.3879 20.8257 73.1788 20.6739 73.0911 20.3703L72.8786 19.3685C72.4603 19.8475 71.978 20.2354 71.4315 20.5322C70.8918 20.8291 70.2611 20.9775 69.5392 20.9775C68.9726 20.9775 68.4531 20.8594 67.9809 20.6233C67.5086 20.3872 67.1005 20.0465 66.7564 19.6013C66.4191 19.1493 66.156 18.5927 65.9671 17.9316C65.785 17.2705 65.6939 16.5149 65.6939 15.6649C65.6939 14.8958 65.7985 14.1807 66.0076 13.5196C66.2168 12.8585 66.517 12.285 66.9082 11.7993C67.2995 11.3136 67.7684 10.9358 68.3148 10.666C68.8612 10.3894 69.4751 10.2511 70.1565 10.2511C70.7367 10.2511 71.2325 10.3421 71.644 10.5243C72.0556 10.7064 72.4232 10.9527 72.747 11.263V5.78848H75.2465ZM84.402 14.4404C84.402 14.1166 84.3548 13.813 84.2604 13.5297C84.1727 13.2396 84.0377 12.9866 83.8556 12.7708C83.6735 12.5549 83.4407 12.3862 83.1574 12.2648C82.8808 12.1366 82.557 12.0725 82.1859 12.0725C81.4641 12.0725 80.894 12.2783 80.4758 12.6898C80.0643 13.1013 79.8012 13.6849 79.6865 14.4404H84.402ZM79.6359 15.9482C79.6764 16.4812 79.7708 16.9433 79.9192 17.3345C80.0676 17.7191 80.2633 18.0395 80.5061 18.2959C80.749 18.5455 81.0357 18.7344 81.3663 18.8625C81.7036 18.984 82.0746 19.0447 82.4794 19.0447C82.8842 19.0447 83.2316 18.9975 83.5217 18.903C83.8185 18.8086 84.0749 18.704 84.2907 18.5893C84.5134 18.4746 84.7056 18.3701 84.8675 18.2756C85.0362 18.1812 85.1981 18.134 85.3532 18.134C85.5624 18.134 85.7175 18.2115 85.8187 18.3667L86.5372 19.2774C86.2606 19.6013 85.9503 19.8745 85.6062 20.0971C85.2622 20.313 84.9013 20.4884 84.5235 20.6233C84.1524 20.7515 83.7713 20.8425 83.38 20.8965C82.9955 20.9505 82.6211 20.9775 82.2568 20.9775C81.5349 20.9775 80.8637 20.8594 80.243 20.6233C79.6224 20.3804 79.0827 20.0263 78.6239 19.5608C78.1652 19.0885 77.8043 18.5084 77.5412 17.8203C77.2781 17.1254 77.1465 16.3226 77.1465 15.4119C77.1465 14.7035 77.2612 14.039 77.4906 13.4184C77.72 12.791 78.0472 12.2479 78.4722 11.7892C78.9039 11.3237 79.4267 10.956 80.0406 10.6862C80.6613 10.4164 81.3595 10.2814 82.1353 10.2814C82.7897 10.2814 83.3935 10.386 83.9467 10.5951C84.4999 10.8043 84.9755 11.1112 85.3735 11.516C85.7715 11.914 86.0818 12.4065 86.3045 12.9934C86.5338 13.5736 86.6485 14.2381 86.6485 14.9869C86.6485 15.3647 86.608 15.621 86.5271 15.7559C86.4461 15.8841 86.291 15.9482 86.0616 15.9482H79.6359ZM92.3189 15.3815C92.6293 15.3815 92.8991 15.3411 93.1285 15.2601C93.3578 15.1724 93.5467 15.0543 93.6951 14.9059C93.8503 14.7575 93.965 14.5787 94.0392 14.3696C94.1202 14.1605 94.1606 13.9311 94.1606 13.6815C94.1606 13.1688 94.0055 12.764 93.6951 12.4672C93.3916 12.1636 92.9328 12.0118 92.3189 12.0118C91.705 12.0118 91.2429 12.1636 90.9326 12.4672C90.629 12.764 90.4772 13.1688 90.4772 13.6815C90.4772 13.9244 90.5143 14.1504 90.5885 14.3595C90.6695 14.5686 90.7842 14.7508 90.9326 14.9059C91.0878 15.0543 91.28 15.1724 91.5094 15.2601C91.7455 15.3411 92.0154 15.3815 92.3189 15.3815ZM95.1422 21.2912C95.1422 21.0888 95.0815 20.9235 94.9601 20.7953C94.8386 20.6671 94.6733 20.5693 94.4642 20.5019C94.2551 20.4277 94.0088 20.3737 93.7255 20.34C93.4489 20.3062 93.1521 20.2826 92.835 20.2691C92.5247 20.2489 92.2009 20.232 91.8636 20.2185C91.533 20.205 91.2092 20.1781 90.8921 20.1376C90.6155 20.2927 90.3895 20.4749 90.2141 20.684C90.0455 20.8931 89.9611 21.136 89.9611 21.4126C89.9611 21.5947 90.005 21.7634 90.0927 21.9186C90.1871 22.0805 90.3322 22.2188 90.5278 22.3335C90.7302 22.4481 90.9899 22.5358 91.307 22.5966C91.6241 22.664 92.012 22.6977 92.4707 22.6977C92.9362 22.6977 93.3376 22.6606 93.6749 22.5864C94.0122 22.519 94.2888 22.4212 94.5047 22.293C94.7273 22.1715 94.8892 22.0231 94.9904 21.8477C95.0916 21.6791 95.1422 21.4936 95.1422 21.2912ZM97.6315 10.7975V11.7285C97.6315 12.0253 97.4528 12.2075 97.0952 12.2749L96.1642 12.4469C96.3059 12.8045 96.3767 13.1958 96.3767 13.6208C96.3767 14.1335 96.2722 14.599 96.063 15.0172C95.8607 15.4288 95.5773 15.7796 95.213 16.0696C94.8487 16.3597 94.417 16.5857 93.9178 16.7476C93.4253 16.9028 92.8924 16.9804 92.3189 16.9804C92.1165 16.9804 91.9209 16.9703 91.732 16.95C91.5431 16.9298 91.3576 16.9028 91.1755 16.8691C90.8516 17.0647 90.6897 17.2839 90.6897 17.5268C90.6897 17.7359 90.7842 17.8911 90.9731 17.9923C91.1687 18.0867 91.4251 18.1542 91.7421 18.1947C92.0592 18.2352 92.4201 18.2621 92.8249 18.2756C93.2297 18.2824 93.6445 18.3026 94.0696 18.3363C94.4946 18.3701 94.9095 18.4308 95.3142 18.5185C95.719 18.5994 96.0799 18.731 96.397 18.9131C96.7141 19.0953 96.967 19.3449 97.1559 19.662C97.3516 19.9723 97.4494 20.3737 97.4494 20.8662C97.4494 21.3249 97.3347 21.7701 97.1053 22.2019C96.8827 22.6337 96.5555 23.0182 96.1238 23.3555C95.6988 23.6928 95.1726 23.9627 94.5452 24.165C93.9245 24.3742 93.2162 24.4787 92.4201 24.4787C91.6376 24.4787 90.9562 24.4012 90.376 24.246C89.7959 24.0976 89.3135 23.8952 88.929 23.6388C88.5444 23.3892 88.2577 23.0991 88.0688 22.7686C87.88 22.438 87.7855 22.094 87.7855 21.7364C87.7855 21.2507 87.9305 20.8459 88.2206 20.5221C88.5175 20.1915 88.9222 19.9284 89.4349 19.7328C89.1583 19.5911 88.9391 19.4022 88.7772 19.1661C88.6153 18.93 88.5343 18.6197 88.5343 18.2352C88.5343 18.08 88.5613 17.9215 88.6153 17.7596C88.676 17.5909 88.7603 17.4256 88.8683 17.2637C88.9829 17.1018 89.1246 16.95 89.2933 16.8083C89.4619 16.6599 89.6609 16.5284 89.8903 16.4137C89.3641 16.1304 88.9492 15.7526 88.6456 15.2803C88.3488 14.8081 88.2004 14.2549 88.2004 13.6208C88.2004 13.1081 88.3016 12.646 88.504 12.2344C88.7131 11.8162 88.9998 11.462 89.3641 11.1719C89.7351 10.8751 90.1703 10.6491 90.6695 10.4939C91.1755 10.3388 91.7253 10.2612 92.3189 10.2612C92.7642 10.2612 93.1824 10.3084 93.5737 10.4029C93.965 10.4906 94.3225 10.6221 94.6464 10.7975H97.6315ZM104.701 16.3935C103.979 16.4272 103.372 16.4913 102.88 16.5857C102.387 16.6734 101.993 16.7881 101.696 16.9298C101.399 17.0714 101.186 17.2367 101.058 17.4256C100.93 17.6145 100.866 17.8203 100.866 18.0429C100.866 18.4814 100.994 18.7951 101.251 18.984C101.514 19.1729 101.854 19.2673 102.273 19.2673C102.785 19.2673 103.227 19.1762 103.598 18.9941C103.976 18.8052 104.344 18.5219 104.701 18.1441V16.3935ZM98.9738 11.8904C100.168 10.7975 101.605 10.2511 103.285 10.2511C103.892 10.2511 104.435 10.3523 104.914 10.5546C105.393 10.7503 105.798 11.0269 106.128 11.3844C106.459 11.7352 106.708 12.1569 106.877 12.6493C107.052 13.1418 107.14 13.6815 107.14 14.2684V20.8257H106.007C105.771 20.8257 105.588 20.792 105.46 20.7245C105.332 20.6503 105.231 20.5052 105.157 20.2894L104.934 19.5405C104.671 19.7767 104.415 19.9858 104.165 20.1679C103.915 20.3433 103.656 20.4917 103.386 20.6132C103.116 20.7346 102.826 20.8257 102.515 20.8864C102.212 20.9539 101.875 20.9876 101.504 20.9876C101.065 20.9876 100.66 20.9302 100.289 20.8156C99.9182 20.6941 99.5978 20.5154 99.3279 20.2792C99.0581 20.0431 98.849 19.7497 98.7005 19.3989C98.5521 19.0481 98.4779 18.6399 98.4779 18.1744C98.4779 17.9113 98.5218 17.6516 98.6095 17.3953C98.6972 17.1322 98.8388 16.8825 99.0345 16.6464C99.2369 16.4103 99.4966 16.1877 99.8137 15.9786C100.131 15.7694 100.519 15.5873 100.977 15.4321C101.443 15.277 101.983 15.1522 102.596 15.0577C103.21 14.9565 103.912 14.8958 104.701 14.8756V14.2684C104.701 13.5736 104.553 13.0608 104.256 12.7303C103.959 12.393 103.531 12.2243 102.971 12.2243C102.566 12.2243 102.229 12.2715 101.959 12.366C101.696 12.4604 101.463 12.5684 101.261 12.6898C101.058 12.8045 100.873 12.9091 100.704 13.0035C100.542 13.098 100.36 13.1452 100.158 13.1452C99.9823 13.1452 99.8339 13.1013 99.7125 13.0136C99.591 12.9192 99.4932 12.8112 99.419 12.6898L98.9738 11.8904ZM116.952 11.4755C116.952 11.6509 116.922 11.8229 116.861 11.9916C116.8 12.1602 116.719 12.2985 116.618 12.4065L111.69 18.903H116.8V20.8257H108.786V19.7834C108.786 19.6687 108.813 19.5338 108.867 19.3786C108.921 19.2167 109.002 19.0649 109.109 18.9233L114.088 12.3559H109.079V10.4433H116.952V11.4755ZM125.314 14.4404C125.314 14.1166 125.267 13.813 125.172 13.5297C125.084 13.2396 124.95 12.9866 124.767 12.7708C124.585 12.5549 124.353 12.3862 124.069 12.2648C123.793 12.1366 123.469 12.0725 123.098 12.0725C122.376 12.0725 121.806 12.2783 121.388 12.6898C120.976 13.1013 120.713 13.6849 120.598 14.4404H125.314ZM120.548 15.9482C120.588 16.4812 120.683 16.9433 120.831 17.3345C120.979 17.7191 121.175 18.0395 121.418 18.2959C121.661 18.5455 121.948 18.7344 122.278 18.8625C122.615 18.984 122.986 19.0447 123.391 19.0447C123.796 19.0447 124.143 18.9975 124.433 18.903C124.73 18.8086 124.987 18.704 125.203 18.5893C125.425 18.4746 125.617 18.3701 125.779 18.2756C125.948 18.1812 126.11 18.134 126.265 18.134C126.474 18.134 126.629 18.2115 126.731 18.3667L127.449 19.2774C127.172 19.6013 126.862 19.8745 126.518 20.0971C126.174 20.313 125.813 20.4884 125.435 20.6233C125.064 20.7515 124.683 20.8425 124.292 20.8965C123.907 20.9505 123.533 20.9775 123.169 20.9775C122.447 20.9775 121.775 20.8594 121.155 20.6233C120.534 20.3804 119.994 20.0263 119.536 19.5608C119.077 19.0885 118.716 18.5084 118.453 17.8203C118.19 17.1254 118.058 16.3226 118.058 15.4119C118.058 14.7035 118.173 14.039 118.402 13.4184C118.632 12.791 118.959 12.2479 119.384 11.7892C119.816 11.3237 120.339 10.956 120.952 10.6862C121.573 10.4164 122.271 10.2814 123.047 10.2814C123.702 10.2814 124.305 10.386 124.858 10.5951C125.412 10.8043 125.887 11.1112 126.285 11.516C126.683 11.914 126.994 12.4065 127.216 12.9934C127.446 13.5736 127.56 14.2381 127.56 14.9869C127.56 15.3647 127.52 15.621 127.439 15.7559C127.358 15.8841 127.203 15.9482 126.973 15.9482H120.548Z" fill="#204ECF"/>
</svg>
