<svg width="29" height="28" viewBox="0 0 29 28" fill="none" xmlns="http://www.w3.org/2000/svg">
<rect x="1" y="0.5" width="27" height="27" rx="7.5" fill="#F6F6F6"/>
<rect x="1" y="0.5" width="27" height="27" rx="7.5" stroke="#E0E0E0"/>
<path opacity="0.2" d="M20.75 20.875H17L8.25 7.125H12L20.75 20.875Z" fill="black"/>
<path d="M21.2775 20.5398L16.3869 12.8539L21.2127 7.54531C21.3218 7.42228 21.3781 7.2612 21.3692 7.09697C21.3604 6.93275 21.2872 6.77862 21.1655 6.66801C21.0437 6.5574 20.8833 6.49923 20.719 6.50609C20.5547 6.51296 20.3997 6.58431 20.2877 6.70469L15.6908 11.7609L12.5275 6.78984C12.4711 6.70106 12.3932 6.62795 12.301 6.57728C12.2088 6.52661 12.1053 6.50003 12.0002 6.5H8.25016C8.1381 6.49995 8.02808 6.53002 7.93163 6.58708C7.83518 6.64413 7.75585 6.72607 7.70194 6.82431C7.64802 6.92255 7.62152 7.03348 7.62519 7.14548C7.62886 7.25749 7.66258 7.36644 7.72281 7.46094L12.6134 15.1461L7.78766 20.4586C7.7313 20.5191 7.68752 20.5902 7.65886 20.6678C7.63019 20.7454 7.61721 20.8279 7.62066 20.9105C7.62411 20.9932 7.64393 21.0743 7.67897 21.1492C7.71401 21.2241 7.76357 21.2914 7.82477 21.347C7.88598 21.4026 7.95762 21.4455 8.03554 21.4733C8.11346 21.501 8.19611 21.513 8.27869 21.5085C8.36128 21.5041 8.44216 21.4833 8.51666 21.4474C8.59115 21.4114 8.65777 21.3611 8.71266 21.2992L13.3095 16.243L16.4728 21.2141C16.5297 21.3021 16.6078 21.3745 16.6999 21.4244C16.7921 21.4744 16.8953 21.5004 17.0002 21.5H20.7502C20.8621 21.5 20.972 21.4699 21.0683 21.4128C21.1646 21.3558 21.2439 21.274 21.2978 21.1759C21.3517 21.0778 21.3782 20.967 21.3746 20.8551C21.3711 20.7432 21.3375 20.6343 21.2775 20.5398ZM17.3431 20.25L9.38844 7.75H11.6541L19.6119 20.25H17.3431Z" fill="black"/>
</svg>
